<svg width="22" height="34" viewBox="0 0 25 37" fill="none" xmlns="http://www.w3.org/2000/svg">
<path fill-rule="evenodd" clip-rule="evenodd" d="M11.9718 0.690458C10.9756 2.1245 10.1776 5.74119 10.3149 8.19996L10.3865 9.48176L12.4659 9.55109C13.6096 9.58921 14.6345 9.52941 14.7437 9.41791C15.0404 9.11509 14.5201 4.57113 13.9868 2.80877C13.7305 1.96178 13.2803 0.983271 12.9862 0.634469L12.4517 0L11.9718 0.690458ZM3.15283 3.01247C2.13566 4.59733 1.27906 8.49063 1.44151 10.7922L1.51713 11.8643H3.73448H5.95183L5.90234 10.0967C5.81482 6.96509 4.97012 3.73652 4.00546 2.84522C3.55079 2.42542 3.52675 2.42994 3.15283 3.01247ZM20.9341 2.87977C20.3629 3.524 19.8378 4.96138 19.4881 6.83787C19.1201 8.81441 18.9882 11.3032 19.2307 11.7035C19.3399 11.8841 20.1405 11.9834 21.487 11.9834H23.5739V10.3366C23.5739 7.37489 22.6104 3.5495 21.6632 2.75206C21.3762 2.51 21.2408 2.53382 20.9341 2.87977ZM9.84292 13.7341C9.56423 15.0902 9.3362 16.3232 9.3362 16.474C9.3362 16.7859 15.5359 16.8788 15.7131 16.5698C15.7695 16.4716 15.6092 15.4798 15.3566 14.366C15.1043 13.2521 14.8523 12.0994 14.7967 11.8047C14.7005 11.2946 14.5906 11.2687 12.5226 11.2687H10.3499L9.84292 13.7341ZM1.06596 15.8469C0.830688 17.0635 0.586781 18.3033 0.523995 18.6019L0.409858 19.1448L3.64765 19.0784C6.36145 19.0226 6.87938 18.954 6.84763 18.6545C6.82686 18.4579 6.61026 17.2786 6.36612 16.0337L5.92242 13.7703L3.7081 13.7027L1.49402 13.635L1.06596 15.8469ZM18.7989 15.4977C18.5858 16.5133 18.3139 17.6512 18.1946 18.0267C18.0753 18.4022 18.0352 18.8041 18.1055 18.9202C18.2436 19.1484 24.3434 19.2192 24.5631 18.9947C24.6366 18.9199 24.5521 18.3036 24.3754 17.6248C24.1987 16.9462 23.9387 15.7745 23.7975 15.0211L23.5408 13.6512H21.3633H19.1861L18.7989 15.4977ZM9.0309 18.0925C8.94221 18.1832 8.86939 21.6703 8.86939 25.8419V33.4262H12.4904H16.1115L16.0499 25.7425L15.9882 18.0589L12.5903 17.9931C10.7217 17.9571 9.11983 18.0017 9.0309 18.0925ZM0.14401 20.693C0.0648858 20.9036 0 23.8549 0 27.2512V33.4262H3.62151H7.24302L7.18093 26.9338L7.11885 20.4414L3.70343 20.3756C0.742694 20.3187 0.268882 20.3609 0.14401 20.693ZM17.9003 20.475C17.8116 20.5658 17.7388 23.5168 17.7388 27.0332V33.4262H21.3603H24.9818L24.9197 26.9338L24.8576 20.4414L21.4597 20.3756C19.5911 20.3397 17.9892 20.3842 17.9003 20.475ZM0.155681 34.7764C0.0700214 34.8636 0 35.3997 0 35.9677V37H3.61778H7.23555V35.8087V34.6175H3.77346C1.86911 34.6175 0.241107 34.6889 0.155681 34.7764ZM9.02507 34.7764C8.93941 34.8636 8.86939 35.3997 8.86939 35.9677V37H12.4872H16.1049V35.8087V34.6175H12.6428C10.7385 34.6175 9.11049 34.6889 9.02507 34.7764ZM17.9003 34.7702C17.8116 34.861 17.7388 35.3997 17.7388 35.9677V37H21.3694H25L24.9288 35.8683L24.8576 34.7366L21.4597 34.6708C19.5911 34.6349 17.9892 34.6794 17.9003 34.7702Z" fill="white"/>
</svg>
