<svg width="34" height="35" viewBox="0 0 124 125" fill="none" xmlns="http://www.w3.org/2000/svg">
<path fill-rule="evenodd" clip-rule="evenodd" d="M49.589 1.487C30.929 5.487 14.093 18.706 6.355 35.432C2.928 42.839 0 55.238 0 62.342C0 69.446 2.928 81.845 6.355 89.252C9.932 96.984 17.395 106.214 24.298 111.442C58.911 137.658 107.644 122.713 121.426 81.656C123.605 75.166 124 72.202 124 62.342C124 52.482 123.605 49.518 121.426 43.028C114.089 21.17 97.088 6.04 74.66 1.407C65.464 -0.492997 58.722 -0.470997 49.589 1.487ZM70.668 14.945C77.671 16.164 77.966 16.65 75.28 22.558C74.333 24.639 73.522 26.441 73.476 26.563C73.43 26.684 70.941 26.393 67.946 25.916C62.261 25.01 53.152 25.992 48.263 28.038C46.743 28.674 43.625 29.078 41.333 28.935C36.098 28.609 33 31.297 33 36.164C33 37.992 31.678 41.929 30.061 44.914C20.29 62.961 27.461 85.948 45.754 95.217C55.98 100.399 67.519 100.498 78.441 95.498C92.993 88.835 101.519 72.412 98.767 56.342C97.076 46.465 97.04 46.601 101.694 45.234C106.467 43.831 107.079 44.226 108.832 49.842C112.149 60.468 110.988 71.884 105.4 83.573C93.934 107.558 64.685 117.23 40.211 105.13C32.468 101.302 23.267 91.908 19.259 83.739C5.419 55.529 21.968 21.434 52.5 15.253C60.342 13.665 63.056 13.619 70.668 14.945ZM70.577 32.086C70.833 32.341 69.528 36.098 67.678 40.435C64.331 48.277 64.29 48.322 59.907 49.054C43.935 51.721 45.79 76.115 61.964 76.115C67.005 76.115 70.969 74.014 73.802 69.842C75.747 66.978 76.095 65.434 75.72 61.342C75.467 58.592 74.952 55.613 74.574 54.722C74.01 53.395 75.295 52.716 81.693 50.963L89.5 48.823L91.195 50.876C92.128 52.005 93.196 54.969 93.57 57.463C95.64 71.267 87.969 85.291 75.122 91.19C67.932 94.491 56.273 94.213 48.839 90.562C42.311 87.356 36.692 81.586 33.652 74.964C30.473 68.041 30.636 56.07 34 49.342C36.319 44.704 36.818 44.3 40.894 43.756C45.595 43.128 48 40.935 48 37.273C48 34.608 49.422 33.349 54 31.963C57.278 30.97 69.552 31.061 70.577 32.086Z" fill="white"/>
</svg>
